<?xml version="1.0" encoding="iso-8859-1"?>
<!-- Generator: Adobe Illustrator 19.0.0, SVG Export Plug-In . SVG Version: 6.00 Build 0)  -->
<svg version="1.1" id="Capa_1" xmlns="http://www.w3.org/2000/svg" xmlns:xlink="http://www.w3.org/1999/xlink" x="0px" y="0px"
	 viewBox="0 0 64 64" style="enable-background:new 0 0 64 64;" xml:space="preserve">
<g>
	<path d="M59,27.5h-6.667L33.981,13.736C34.601,13.186,35,12.392,35,11.5c0-1.654-1.346-3-3-3s-3,1.346-3,3
		c0,0.892,0.399,1.686,1.019,2.236L11.667,27.5H5c-2.757,0-5,2.243-5,5v18c0,2.757,2.243,5,5,5h54c2.757,0,5-2.243,5-5v-18
		C64,29.743,61.757,27.5,59,27.5z M32,10.5c0.551,0,1,0.449,1,1s-0.449,1-1,1c-0.551,0-1-0.449-1-1S31.449,10.5,32,10.5z M32,14.75
		L49,27.5H15L32,14.75z M62,50.5c0,1.654-1.346,3-3,3H5c-1.654,0-3-1.346-3-3v-18c0-1.654,1.346-3,3-3h54c1.654,0,3,1.346,3,3V50.5z
		"/>
	<path d="M34,35.5v12c0,0.552,0.448,1,1,1h6v-2h-5v-4h5v-2h-5v-4h5v-2h-6C34.448,34.5,34,34.948,34,35.5z"/>
	<path d="M49,43.264l-4.106-8.211c-0.207-0.414-0.669-0.632-1.124-0.526C43.319,34.633,43,35.036,43,35.5v13h2v-8.764l4.105,8.212
		C49.278,48.292,49.627,48.5,50,48.5c0.076,0,0.153-0.009,0.23-0.027C50.681,48.367,51,47.964,51,47.5v-13h-2V43.264z"/>
	<path d="M18,34.5c-2.206,0-4,1.794-4,4v6c0,2.206,1.794,4,4,4s4-1.794,4-4v-6C22,36.294,20.206,34.5,18,34.5z M20,44.5
		c0,1.103-0.897,2-2,2s-2-0.897-2-2v-6c0-1.103,0.897-2,2-2s2,0.897,2,2V44.5z"/>
	<path d="M28,34.5h-3c-0.552,0-1,0.448-1,1v13h2v-6h2c2.206,0,4-1.794,4-4S30.206,34.5,28,34.5z M28,40.5h-2v-4h2
		c1.103,0,2,0.897,2,2S29.103,40.5,28,40.5z"/>
</g>
<g>
</g>
<g>
</g>
<g>
</g>
<g>
</g>
<g>
</g>
<g>
</g>
<g>
</g>
<g>
</g>
<g>
</g>
<g>
</g>
<g>
</g>
<g>
</g>
<g>
</g>
<g>
</g>
<g>
</g>
</svg>
